<svg width="1440" height="808" viewBox="0 0 1440 808" fill="none" xmlns="http://www.w3.org/2000/svg">
<mask id="mask0" style="mask-type:alpha" maskUnits="userSpaceOnUse" x="0" y="-48" width="1440" height="856">
<path d="M0 -48H1440V552C1440 552 1137.5 808 720 808C302.5 808 0 552 0 552V-48Z" fill="#10495C"/>
</mask>
<g mask="url(#mask0)">
<path d="M0 -48H1440V552C1440 552 1137.5 808 720 808C302.5 808 0 552 0 552V-48Z" fill="#10495C"/>
<path opacity="0.5" fill-rule="evenodd" clip-rule="evenodd" d="M407.921 578.239C378.952 639.387 348.257 665.18 315.95 669.755C283.574 674.339 249.276 657.675 212.954 633.091C196.019 621.629 178.688 608.478 160.944 595.013L160.942 595.01C159.677 594.051 158.41 593.089 157.141 592.127C138.075 577.666 118.538 562.962 98.5484 549.74C58.581 523.305 16.7025 502.727 -27.0256 501.869L-27.055 503.369C16.2365 504.218 57.8192 524.6 97.7209 550.991C117.665 564.183 137.166 578.859 156.234 593.322C157.505 594.285 158.774 595.248 160.041 596.21L160.043 596.211C177.779 609.671 195.143 622.847 212.113 634.333C248.442 658.922 283.17 675.911 316.16 671.24C349.22 666.559 380.232 640.19 409.277 578.881C438.248 517.729 470.933 475.394 507.233 445.838C543.53 416.284 583.481 399.475 627.034 389.429C670.599 379.38 717.751 376.103 768.455 373.604C776.405 373.212 784.443 372.839 792.567 372.463C836.238 370.438 882.413 368.297 931.009 362.441C1023.41 351.304 1111.84 292.112 1184.8 222.758C1257.77 153.391 1315.36 73.7676 1346.07 21.5975L1344.78 20.8365C1314.12 72.9032 1256.62 152.412 1183.77 221.671C1110.9 290.944 1022.76 349.873 930.83 360.951C882.293 366.801 836.181 368.939 792.51 370.964C784.382 371.341 776.339 371.714 768.381 372.106C717.678 374.604 670.406 377.886 626.697 387.968C582.974 398.052 542.799 414.945 506.286 444.675C469.775 474.403 436.965 516.933 407.921 578.239ZM393.668 537.603C364.699 598.751 334.003 624.545 301.697 629.119C269.321 633.703 235.022 617.04 198.701 592.456C181.769 580.996 164.441 567.847 146.7 554.384L146.699 554.383L146.697 554.382L146.694 554.379L146.691 554.377L146.688 554.375C145.423 553.415 144.157 552.454 142.887 551.491C123.821 537.03 104.285 522.327 84.2952 509.105C44.3278 482.67 2.44936 462.091 -41.2787 461.234L-41.3082 462.733C1.98329 463.582 43.566 483.964 83.4677 510.356C103.412 523.548 122.913 538.224 141.981 552.686C143.252 553.65 144.52 554.613 145.787 555.574L145.79 555.576C163.526 569.036 180.889 582.212 197.86 593.698C234.189 618.287 268.916 635.275 301.907 630.604C334.967 625.923 365.978 599.554 395.024 538.245C423.995 477.094 456.68 434.759 492.98 405.203C529.277 375.649 569.228 358.839 612.781 348.794C656.346 338.745 703.498 335.467 754.202 332.969C762.152 332.577 770.19 332.204 778.314 331.827C821.985 329.803 868.16 327.662 916.756 321.805C1009.16 310.669 1097.59 251.476 1170.55 182.123C1243.52 112.755 1301.1 33.1322 1331.82 -19.0379L1330.52 -19.7989C1299.87 32.2677 1242.37 111.777 1169.51 181.036C1096.64 250.309 1008.5 309.237 916.577 320.316C868.04 326.165 821.928 328.304 778.257 330.328C770.129 330.705 762.086 331.078 754.128 331.47C703.425 333.969 656.153 337.25 612.443 347.332C568.721 357.417 528.546 374.31 492.033 404.04C455.522 433.767 422.712 476.298 393.668 537.603ZM379.415 496.968C350.446 558.116 319.75 583.909 287.444 588.484C255.068 593.068 220.769 576.404 184.447 551.82C167.516 540.36 150.188 527.211 132.446 513.748L132.445 513.747L132.443 513.745L132.442 513.744L132.438 513.742L132.435 513.74L130.146 512.002L128.634 510.856C109.568 496.395 90.0322 481.691 70.0422 468.469C30.0748 442.034 -11.8037 421.456 -55.5318 420.598L-55.5612 422.098C-12.2698 422.947 29.313 443.329 69.2147 469.72C89.1591 482.912 108.66 497.588 127.728 512.051C128.999 513.015 130.267 513.978 131.534 514.939L131.537 514.941L131.54 514.943L131.541 514.944L131.543 514.945L131.544 514.946C149.278 528.404 166.639 541.578 183.607 553.062C219.936 577.651 254.663 594.64 287.654 589.969C320.714 585.288 351.725 558.919 380.771 497.61C409.741 436.458 442.427 394.124 478.727 364.567C515.024 335.013 554.975 318.204 598.527 308.158C642.093 298.11 689.245 294.832 739.949 292.333C747.899 291.941 755.937 291.569 764.061 291.192C807.732 289.167 853.907 287.026 902.503 281.17C994.907 270.033 1083.34 210.841 1156.29 141.487C1229.27 72.1198 1286.85 -7.5032 1317.56 -59.6733L1316.27 -60.4343C1285.62 -8.36767 1228.12 71.1413 1155.26 140.4C1082.39 209.673 994.25 268.602 902.324 279.681C853.787 285.53 807.675 287.668 764.005 289.693L764.003 289.693C755.876 290.07 747.833 290.443 739.875 290.835C689.172 293.334 641.9 296.615 598.19 306.697C554.468 316.782 514.293 333.674 477.78 363.404C441.269 393.132 408.459 435.662 379.415 496.968ZM273.19 547.848C305.497 543.274 336.193 517.48 365.162 456.332C394.205 395.027 427.016 352.496 463.526 322.769C500.04 293.039 540.214 276.146 583.937 266.061C627.646 255.979 674.918 252.698 725.621 250.199C733.543 249.809 741.549 249.438 749.639 249.063L749.704 249.06L749.75 249.057C793.421 247.033 839.534 244.895 888.07 239.045C979.997 227.966 1068.14 169.038 1141.01 99.7648C1213.86 30.5058 1271.36 -49.0031 1302.02 -101.07L1303.31 -100.309C1272.6 -48.1387 1215.01 31.4843 1142.04 100.852C1069.08 170.206 980.654 229.398 888.25 240.534C839.653 246.391 793.479 248.532 749.808 250.557C741.683 250.933 733.646 251.306 725.695 251.698C674.991 254.196 627.84 257.474 584.274 267.523C540.722 277.569 500.771 294.378 464.473 323.932C428.173 353.488 395.488 395.823 366.517 456.975C337.472 518.283 306.46 544.653 273.401 549.333C240.41 554.004 205.683 537.016 169.353 512.427C152.383 500.941 135.02 487.765 117.283 474.305L117.281 474.303L115.946 473.29L113.474 471.415C94.4062 456.953 74.9057 442.277 54.9613 429.085C15.0596 402.693 -26.5231 382.312 -69.8146 381.462L-69.7852 379.963C-26.057 380.82 15.8214 401.399 55.7888 427.834C75.7789 441.056 95.315 455.759 114.381 470.22C115.65 471.183 116.917 472.144 118.182 473.104L118.185 473.107L118.188 473.109L118.19 473.11C135.932 486.574 153.261 499.724 170.194 511.185C206.516 535.769 240.815 552.432 273.19 547.848ZM350.908 415.697C321.939 476.845 291.244 502.639 258.937 507.213C226.561 511.797 192.263 495.133 155.941 470.549C139.007 459.088 121.677 445.937 103.934 432.473L103.931 432.471L103.928 432.469C102.664 431.509 101.397 430.547 100.127 429.585C81.0616 415.124 61.5254 400.42 41.5354 387.198C1.56798 360.763 -40.3105 340.185 -84.0386 339.327L-84.068 340.827C-40.7766 341.676 0.806162 362.058 40.7079 388.45C60.6523 401.641 80.1527 416.317 99.221 430.78C100.492 431.744 101.761 432.707 103.028 433.668L103.03 433.67L103.033 433.672L103.037 433.675C120.77 447.132 138.132 460.307 155.1 471.792C191.429 496.38 226.156 513.369 259.147 508.698C292.207 504.017 323.218 477.648 352.264 416.339C381.235 355.187 413.92 312.853 450.22 283.296C486.517 253.742 526.468 236.933 570.021 226.887C613.586 216.839 660.738 213.561 711.442 211.062C719.38 210.671 727.405 210.299 735.517 209.923L735.545 209.922L735.554 209.921C779.225 207.896 825.4 205.756 873.996 199.899C966.4 188.763 1054.83 129.57 1127.79 60.2165C1200.76 -9.15111 1258.34 -88.7741 1289.06 -140.944L1287.76 -141.705C1257.11 -89.6386 1199.61 -10.1296 1126.75 59.1293C1053.88 128.402 965.743 187.331 873.817 198.41C825.28 204.259 779.168 206.397 735.497 208.422C727.369 208.799 719.326 209.172 711.368 209.564C660.665 212.063 613.393 215.344 569.684 225.426C525.961 235.511 485.786 252.404 449.273 282.133C412.762 311.861 379.952 354.392 350.908 415.697ZM244.684 466.577C276.99 462.003 307.686 436.209 336.655 375.061C365.699 313.756 398.509 271.225 435.02 241.498C471.533 211.768 511.708 194.875 555.43 184.79C599.14 174.708 646.412 171.427 697.115 168.929C705.073 168.536 713.116 168.163 721.244 167.787C764.915 165.762 811.027 163.624 859.564 157.774C951.49 146.695 1039.63 87.7667 1112.5 18.4938C1185.36 -50.7651 1242.86 -130.274 1273.51 -182.341L1274.8 -181.58C1244.09 -129.41 1186.51 -49.7866 1113.53 19.581C1040.58 88.9347 952.147 148.127 859.743 159.263C811.147 165.12 764.972 167.261 721.301 169.286C713.177 169.662 705.139 170.035 697.189 170.427C646.485 172.925 599.333 176.203 555.768 186.252C512.215 196.298 472.264 213.107 435.967 242.661C399.667 272.217 366.982 314.552 338.011 375.704C308.965 437.013 277.954 463.382 244.894 468.062C211.903 472.734 177.176 455.745 140.847 431.156C123.877 419.67 106.514 406.494 88.7783 393.036L88.7756 393.033L88.7745 393.032C87.5075 392.071 86.2387 391.108 84.9679 390.144C65.8996 375.682 46.3992 361.006 26.4548 347.814C-13.4469 321.422 -55.0297 301.041 -98.3211 300.191L-98.2917 298.692C-54.5636 299.549 -12.6851 320.128 27.2823 346.563C47.2723 359.785 66.8085 374.489 85.8744 388.949C87.1436 389.912 88.4105 390.873 89.6754 391.833L89.6781 391.835L89.6807 391.837C107.424 405.302 124.754 418.453 141.688 429.914C178.009 454.498 212.308 471.161 244.684 466.577Z" fill="url(#paint0_linear)"/>
</g>
<defs>
<linearGradient id="paint0_linear" x1="1249.24" y1="330.51" x2="142.099" y2="542.833" gradientUnits="userSpaceOnUse">
<stop stop-color="#846CCA"/>
<stop offset="0.453125" stop-color="#215D71"/>
<stop offset="1" stop-color="#81782C"/>
</linearGradient>
</defs>
</svg>
